<svg xmlns="http://www.w3.org/2000/svg" viewBox="330 105 720 432" preserveAspectRatio="xMidYMid slice" role="img" aria-label="ip-parkuru galeri görünümü 03 - İp parkuru illüstrasyonu">
  <defs>
    <linearGradient id="sky" x1="0" y1="0" x2="1" y2="1"><stop stop-color="#dff4e6"/><stop offset=".5" stop-color="#eef6e9"/><stop offset="1" stop-color="#f8edcf"/></linearGradient>
    <linearGradient id="ground" x1="0" y1="0" x2="1" y2="0"><stop stop-color="#0a3a37"/><stop offset="1" stop-color="#102a28"/></linearGradient>
    <linearGradient id="metal" x1="0" y1="0" x2="1" y2="1"><stop stop-color="#dbe4e0"/><stop offset=".48" stop-color="#7f918d"/><stop offset="1" stop-color="#eff5f1"/></linearGradient>
    <filter id="shadow" x="-20%" y="-20%" width="140%" height="140%"><feDropShadow dx="0" dy="18" stdDeviation="18" flood-color="#041b19" flood-opacity=".18"/></filter>
  </defs>
  <rect width="1200" height="720" rx="34" fill="url(#sky)"/>
  <circle cx="980" cy="116" r="58" fill="#b7ff63" opacity=".75"/>
  <path d="M0 520 C170 445 330 478 470 535 C650 608 815 498 1200 470 L1200 720 L0 720Z" fill="url(#ground)"/>
  <path d="M0 570 C220 520 390 555 535 604 C770 682 920 540 1200 528 L1200 720 L0 720Z" fill="#0d2422" opacity=".7"/>
  
  <g filter="url(#shadow)"><g fill="#173c39"><rect x="190" y="180" width="34" height="390" rx="8"/><rect x="475" y="170" width="34" height="400" rx="8"/><rect x="760" y="185" width="34" height="385" rx="8"/><rect x="1030" y="205" width="34" height="365" rx="8"/></g>
  <g stroke="#dfe8e3" stroke-width="8"><path d="M210 260 H492"/><path d="M492 260 H777"/><path d="M777 260 H1047"/></g>
  <g stroke="#b7ff63" stroke-width="8" fill="none"><path d="M220 325 L270 390 L320 325 L370 390 L420 325 L475 390"/><path d="M510 350 Q640 265 760 350"/><path d="M795 340 L840 390 L885 340 L930 390 L975 340 L1030 390"/></g>
  <g fill="#f8edcf" stroke="#0b3b3a" stroke-width="5"><rect x="180" y="238" width="55" height="38" rx="7"/><rect x="465" y="238" width="55" height="38" rx="7"/><rect x="750" y="238" width="55" height="38" rx="7"/><rect x="1020" y="238" width="55" height="38" rx="7"/></g>
  <g transform="translate(650 309)"><circle cx="0" cy="-20" r="15" fill="#ff8b47"/><path d="M0 -4 L0 38 M0 10 L-24 25 M0 10 L25 27 M0 38 L-17 66 M0 38 L19 65" stroke="#102c2a" stroke-width="11" stroke-linecap="round"/><path d="M0 -3 V-48" stroke="#b7ff63" stroke-width="6"/></g></g>

  <g opacity=".5" fill="#0b3b3a"><circle cx="110" cy="510" r="10"/><circle cx="145" cy="500" r="6"/><circle cx="1040" cy="478" r="9"/></g>
</svg>