<svg xmlns="http://www.w3.org/2000/svg" viewBox="0 0 1200 720" preserveAspectRatio="xMidYMid slice" role="img" aria-label="Indoor tırmanma duvarı - çelik karkas ve yük yolu şeması">
  <defs><linearGradient id="bg" x1="0" y1="0" x2="1" y2="1"><stop stop-color="#dfeee7"/><stop offset="1" stop-color="#f5e7c7"/></linearGradient><filter id="s"><feDropShadow dx="0" dy="18" stdDeviation="18" flood-color="#041b19" flood-opacity=".18"/></filter></defs>
  <rect width="1200" height="720" fill="url(#bg)"/>
  <g stroke-linecap="round" stroke-linejoin="round">
    <g stroke="#0b3b3a" stroke-width="18" fill="none"><path d="M210 585 L254 172 L426 125 L535 222 L710 146 L995 190 L1025 585"/><path d="M210 585 H1025"/><path d="M254 172 L995 190"/><path d="M426 125 L710 146"/><path d="M254 172 L535 222 L995 190"/><path d="M210 585 L535 222 L1025 585"/><path d="M426 125 L210 585"/><path d="M710 146 L1025 585"/></g>
    <g stroke="#b7ff63" stroke-width="8" fill="none"><path d="M380 250 C390 340 390 430 390 520"/><path d="M390 520 l-18 -28 M390 520 l18 -28"/><path d="M690 250 C700 340 700 430 700 520"/><path d="M700 520 l-18 -28 M700 520 l18 -28"/></g>
    <g fill="#ff8b47"><circle cx="380" cy="236" r="16"/><circle cx="690" cy="236" r="16"/></g>
    <g fill="#fff" stroke="#0b3b3a" stroke-width="5"><rect x="168" y="570" width="92" height="44" rx="10"/><rect x="980" y="570" width="92" height="44" rx="10"/></g>
  </g>
  <text x="94" y="92" fill="#0b3b3a" font-family="Arial, sans-serif" font-size="28" font-weight="700">Servis edilebilir modüler çelik karkas • tanımlı yük yolu</text>
</svg>
